<?xml version="1.0" encoding="utf-8"?>
<!-- Generated by IcoMoon.io -->
<!DOCTYPE svg PUBLIC "-//W3C//DTD SVG 1.1//EN" "http://www.w3.org/Graphics/SVG/1.1/DTD/svg11.dtd">
<svg version="1.1" xmlns="http://www.w3.org/2000/svg" xmlns:xlink="http://www.w3.org/1999/xlink" width="33" height="30" viewBox="0 0 44 40">
<path fill="#a38b70" d="M20.328 37.666c-0.942-1.055-3.294-3.113-5.226-4.573-5.726-4.324-6.505-4.95-8.83-7.091-4.286-3.947-6.106-7.912-6.1-13.288 0.003-2.625 0.182-3.636 0.917-5.183 1.247-2.625 3.084-4.575 5.432-5.768 1.663-0.845 2.484-1.22 5.261-1.236 2.906-0.016 3.517 0.323 5.226 1.262 2.080 1.143 4.222 3.585 4.664 5.32l0.273 1.072 0.674-1.476c3.81-8.34 15.973-8.215 20.205 0.207 1.343 2.672 1.49 8.377 0.299 11.591-1.553 4.192-4.47 7.388-11.214 12.286-4.423 3.212-9.428 8.072-9.776 8.754-0.404 0.792-0.019 0.124-1.806-1.878z"></path>
</svg>
