<?xml version="1.0" encoding="utf-8"?>
<!-- Generated by IcoMoon.io -->
<!DOCTYPE svg PUBLIC "-//W3C//DTD SVG 1.1//EN" "http://www.w3.org/Graphics/SVG/1.1/DTD/svg11.dtd">
<svg version="1.1" xmlns="http://www.w3.org/2000/svg" xmlns:xlink="http://www.w3.org/1999/xlink" width="40" height="40" viewBox="0 0 40 40">
<path fill="#363636" d="M20 31.76l-0.48-0.4c-10.32-8.4-13.12-11.36-13.12-16.16 0-4 3.2-7.2 7.2-7.2 3.28 0 5.12 1.84 6.4 3.28 1.28-1.44 3.12-3.28 6.4-3.28 4 0 7.2 3.2 7.2 7.2 0 4.8-2.8 7.76-13.12 16.16l-0.48 0.4zM13.6 9.6c-3.12 0-5.6 2.48-5.6 5.6 0 4.080 2.56 6.8 12 14.48 9.44-7.68 12-10.4 12-14.48 0-3.12-2.48-5.6-5.6-5.6-2.8 0-4.32 1.68-5.52 3.040l-0.88 1.040-0.88-1.040c-1.2-1.36-2.72-3.040-5.52-3.040z"></path>
</svg>
