<?xml version="1.0" encoding="utf-8"?>
<!-- Generated by IcoMoon.io -->
<!DOCTYPE svg PUBLIC "-//W3C//DTD SVG 1.1//EN" "http://www.w3.org/Graphics/SVG/1.1/DTD/svg11.dtd">
<svg version="1.1" xmlns="http://www.w3.org/2000/svg" xmlns:xlink="http://www.w3.org/1999/xlink" width="32" height="32" viewBox="0 0 32 32">
<path fill="#ffffff" d="M3.2 0c-1.773 0-3.2 1.427-3.2 3.2v25.6c0 1.773 1.427 3.2 3.2 3.2h25.6c1.773 0 3.2-1.427 3.2-3.2v-25.6c0-1.773-1.427-3.2-3.2-3.2h-25.6zM24.328 3.168c2.127-0.055 4.36 2.113 4.36 4.162 0 0.845 0.003 2.595 0.004 3.966h-7.678l0.75 0.864h6.928c0.004 3.99 0.008 8.692 0.008 12.166 0 2.293-2.197 4.362-4.434 4.362-4.129 0-14.007 0.012-16.828 0.012-2.066 0-4.284-2.238-4.284-4.304 0-2.007 0.010-7.754 0.016-12.236h6.926l0.75-0.864h-7.676c0.002-1.385 0.006-3.418 0.006-3.964 0-1.12 0.754-2.345 1.764-3.176v6.364h4.986v-7.344c4.174 0.020 11.868 0.058 14.402-0.008zM22.578 4.936c-0.388-0-0.84 0.418-0.84 0.806 0 1.079 0 2.295 0 3.288 0 0.388 0.45 0.808 0.838 0.808 1.183-0 2.109 0 3.22 0 0.384 0 0.818-0.424 0.818-0.808v-3.288c0-0.383-0.435-0.806-0.818-0.806-1.149 0-2.152 0.001-3.218 0zM15.93 9.45c-3.62 0-6.554 2.915-6.554 6.51s2.934 6.51 6.554 6.51c3.62 0 6.554-2.915 6.554-6.51s-2.934-6.51-6.554-6.51zM15.934 10.178c3.168 0 5.736 2.569 5.736 5.738s-2.568 5.738-5.736 5.738c-3.168 0-5.736-2.569-5.736-5.738s2.568-5.738 5.736-5.738zM15.988 11.576c-2.362 0-4.278 1.916-4.278 4.278s1.916 4.276 4.278 4.276c2.362 0 4.276-1.914 4.276-4.276s-1.914-4.278-4.276-4.278z"></path>
</svg>
