<?xml version="1.0" encoding="utf-8"?>
<!-- Generated by IcoMoon.io -->
<!DOCTYPE svg PUBLIC "-//W3C//DTD SVG 1.1//EN" "http://www.w3.org/Graphics/SVG/1.1/DTD/svg11.dtd">
<svg version="1.1" xmlns="http://www.w3.org/2000/svg" xmlns:xlink="http://www.w3.org/1999/xlink" width="32" height="32" viewBox="0 0 32 32">
<path fill="#363636" d="M0 0h32v32h-32v-32z"></path>
<path fill="#fff" d="M24.174 16.749c-0.882-0.951-2.057-1.582-3.525-1.89v-0.128c1.021-0.425 1.821-1.089 2.401-1.994s0.869-1.935 0.869-3.094c0-1-0.21-1.882-0.63-2.648s-1.056-1.377-1.906-1.834c-0.787-0.425-1.629-0.705-2.528-0.838s-2.22-0.199-3.964-0.199h-8.39v23.75h9.507c1.648 0 3.007-0.149 4.075-0.447s2.050-0.797 2.943-1.499c0.755-0.585 1.356-1.324 1.802-2.217s0.67-1.93 0.67-3.11c0-1.616-0.441-2.9-1.324-3.852zM12.436 8.479h0.414c1.063 0 1.864 0.008 2.4 0.024s1.002 0.109 1.396 0.279c0.415 0.181 0.72 0.473 0.916 0.877s0.295 0.798 0.295 1.18c0 0.522-0.091 0.979-0.271 1.372-0.181 0.394-0.511 0.702-0.989 0.925-0.436 0.202-0.858 0.314-1.268 0.335s-1.124 0.031-2.145 0.031h-0.749v-5.024zM18.983 22.029c-0.25 0.452-0.646 0.795-1.188 1.028-0.617 0.266-1.223 0.41-1.818 0.431s-1.67 0.032-3.221 0.032h-0.319v-5.95h1.1c1.064 0 1.911 0.008 2.544 0.024s1.13 0.093 1.491 0.231c0.596 0.213 1.042 0.526 1.34 0.941s0.447 0.989 0.447 1.723c0 0.574-0.125 1.088-0.375 1.539z"></path>
</svg>
